<svg viewBox="0 0 243 43" xmlns="http://www.w3.org/2000/svg" data-logo="logo">
        <g transform="translate(0, 1) rotate(0)" id="logogram"><path fill="#FFAD64" d="M12.2501 38.5041L8.20328 31.4947L14.1422 21.2365L17.9161 27.7736L40.1946 27.7616L33.8729 38.6009L12.2501 38.5041Z"></path><path fill="#ADD4D3" d="M44.1727 20.8016L40.1259 27.8108L28.2725 27.7968L32.0468 21.2598L20.8972 1.97211L33.4451 2.02716L44.1727 20.8016Z"></path><path fill="#FB8351" d="M12.8737 1.93472H20.9674L26.8819 12.2073L19.3334 12.2069L8.2047 31.5066L1.97841 20.6124L12.8737 1.93472Z"></path><path fill="#333237" d="M21.9542 0.311858L21.93 0.269989H11.9176L0.0561523 20.604L8.19841 34.8506L8.2084 34.8333L11.2865 40.1647L34.8269 40.27L43.0937 26.0952H43.0387L46.0926 20.8058L34.4136 0.366518L21.9542 0.311858ZM29.6993 13.8721H29.7618L23.8761 3.65005L32.4765 3.68776L42.2528 20.7972L39.1928 26.0974L31.1736 26.1017L33.9696 21.2592L29.6993 13.8721ZM19.9152 3.59966L23.9284 10.5423L18.3719 10.5421L8.85894 27.0394L8.21004 28.1604L3.90107 20.6209L13.8301 3.59966H19.9152ZM16.0567 21.2226L20.2953 13.8719L25.8534 13.8721L30.1241 21.2602L27.3276 26.1038L18.8773 26.1084L16.0567 21.2226ZM10.1296 31.5014L11.7422 28.705L14.1402 24.5628L16.9553 29.4391L25.4043 29.4345L25.3906 29.4581L37.2697 29.4722L32.9192 36.9318L13.2138 36.8436L10.1296 31.5014Z" clip-rule="evenodd" fill-rule="evenodd"></path></g>
        <g transform="translate(53, 8)" id="logotype"><path d="M11.74 25.11L11.74 25.11L7.08 10.69Q6.84 9.99 7.28 9.39Q7.71 8.80 8.45 8.80L8.45 8.80L9.50 8.80Q10.38 8.80 11.07 9.34Q11.78 9.88 11.98 10.72L11.98 10.72L15.49 24.27Q15.49 24.30 15.52 24.30Q15.56 24.30 15.56 24.27L15.56 24.27L19.05 10.72Q19.27 9.88 19.97 9.34Q20.66 8.80 21.54 8.80L21.54 8.80L22.45 8.80Q23.19 8.80 23.62 9.39Q24.06 9.99 23.82 10.69L23.82 10.69L19.16 25.11Q18.91 25.95 18.20 26.48Q17.48 27 16.57 27L16.57 27L14.33 27Q13.46 27 12.74 26.48Q12.02 25.95 11.74 25.11ZM30.05 27L29.14 27Q28.33 27 27.73 26.41Q27.14 25.81 27.14 25.00L27.14 25.00L27.14 10.79Q27.14 9.99 27.73 9.39Q28.33 8.80 29.14 8.80L29.14 8.80L30.05 8.80Q30.85 8.80 31.45 9.39Q32.04 9.99 32.04 10.79L32.04 10.79L32.04 25.00Q32.04 25.81 31.45 26.41Q30.85 27 30.05 27L30.05 27ZM30.05 4.95L29.14 4.95Q28.33 4.95 27.73 4.35Q27.14 3.76 27.14 2.95L27.14 2.95L27.14 2.74Q27.14 1.94 27.73 1.34Q28.33 0.75 29.14 0.75L29.14 0.75L30.05 0.75Q30.85 0.75 31.45 1.34Q32.04 1.94 32.04 2.74L32.04 2.74L32.04 2.95Q32.04 3.76 31.45 4.35Q30.85 4.95 30.05 4.95L30.05 4.95ZM40.02 25.11L40.02 25.11L35.37 10.69Q35.12 9.99 35.56 9.39Q36.00 8.80 36.73 8.80L36.73 8.80L37.78 8.80Q38.66 8.80 39.36 9.34Q40.05 9.88 40.27 10.72L40.27 10.72L43.77 24.27Q43.77 24.30 43.80 24.30Q43.84 24.30 43.84 24.27L43.84 24.27L47.34 10.72Q47.55 9.88 48.25 9.34Q48.95 8.80 49.82 8.80L49.82 8.80L50.73 8.80Q51.47 8.80 51.90 9.39Q52.34 9.99 52.09 10.69L52.09 10.69L47.44 25.11Q47.20 25.95 46.48 26.48Q45.76 27 44.85 27L44.85 27L42.61 27Q41.73 27 41.02 26.48Q40.30 25.95 40.02 25.11ZM61.27 11.70L61.27 11.70Q59.48 11.70 58.52 12.70Q57.56 13.70 57.31 15.90L57.31 15.90Q57.31 16.18 57.59 16.18L57.59 16.18L64.45 16.18Q64.73 16.18 64.73 15.90L64.73 15.90Q64.59 11.70 61.27 11.70ZM62.14 27.35L62.14 27.35Q57.56 27.35 55.09 24.95Q52.62 22.55 52.62 17.90L52.62 17.90Q52.62 13.28 54.83 10.86Q57.03 8.45 61.20 8.45L61.20 8.45Q68.97 8.45 69.18 17.27L69.18 17.27Q69.21 18.11 68.58 18.67Q67.95 19.23 67.11 19.23L67.11 19.23L57.56 19.23Q57.24 19.23 57.31 19.54L57.31 19.54Q57.56 21.89 58.87 22.96Q60.18 24.02 62.70 24.02L62.70 24.02Q64.28 24.02 66.20 23.50L66.20 23.50Q66.83 23.32 67.37 23.71Q67.92 24.09 67.92 24.76L67.92 24.76Q67.92 25.57 67.44 26.18Q66.97 26.79 66.20 26.93L66.20 26.93Q64.24 27.35 62.14 27.35ZM82.81 13.30Q81.78 11.84 79.71 11.84Q77.65 11.84 76.61 13.30Q75.58 14.75 75.58 17.90Q75.58 21.05 76.61 22.50Q77.65 23.95 79.71 23.95Q81.78 23.95 82.81 22.50Q83.84 21.05 83.84 17.90Q83.84 14.75 82.81 13.30ZM86.24 24.88Q83.91 27.35 79.71 27.35Q75.51 27.35 73.18 24.88Q70.86 22.41 70.86 17.90Q70.86 13.38 73.18 10.92Q75.51 8.45 79.71 8.45Q83.91 8.45 86.24 10.92Q88.57 13.38 88.57 17.90Q88.57 22.41 86.24 24.88ZM101.27 18.70L93.36 18.70Q92.59 18.70 92.03 18.16Q91.47 17.62 91.47 16.85Q91.47 16.08 92.03 15.54Q92.59 14.99 93.36 14.99L93.36 14.99L101.27 14.99Q102.04 14.99 102.60 15.54Q103.16 16.08 103.16 16.85Q103.16 17.62 102.60 18.16Q102.04 18.70 101.27 18.70L101.27 18.70ZM109.08 12.89L107.40 12.89Q106.70 12.89 106.21 12.39Q105.72 11.88 105.72 11.18Q105.72 10.48 106.21 9.99Q106.70 9.50 107.40 9.50L107.40 9.50L109.08 9.50Q109.39 9.50 109.39 9.18L109.39 9.18L109.39 4.84Q109.39 4.04 109.97 3.44Q110.55 2.85 111.35 2.85L111.35 2.85L112.05 2.85Q112.86 2.85 113.45 3.44Q114.05 4.04 114.05 4.84L114.05 4.84L114.05 9.18Q114.05 9.50 114.36 9.50L114.36 9.50L118.35 9.50Q119.05 9.50 119.56 9.99Q120.07 10.48 120.07 11.18Q120.07 11.88 119.56 12.39Q119.05 12.89 118.35 12.89L118.35 12.89L114.36 12.89Q114.05 12.89 114.05 13.17L114.05 13.17L114.05 20.24Q114.05 22.52 114.54 23.18Q115.03 23.85 116.57 23.85L116.57 23.85Q117.41 23.85 117.83 23.78L117.83 23.78Q118.53 23.71 119.05 24.09Q119.58 24.48 119.58 25.14L119.58 25.14Q119.58 25.91 119.07 26.53Q118.56 27.14 117.83 27.21L117.83 27.21Q116.29 27.35 115.52 27.35L115.52 27.35Q112.12 27.35 110.76 25.90Q109.39 24.45 109.39 20.70L109.39 20.70L109.39 13.17Q109.39 12.89 109.08 12.89L109.08 12.89ZM130.74 11.70L130.74 11.70Q128.96 11.70 127.99 12.70Q127.03 13.70 126.79 15.90L126.79 15.90Q126.79 16.18 127.07 16.18L127.07 16.18L133.93 16.18Q134.21 16.18 134.21 15.90L134.21 15.90Q134.07 11.70 130.74 11.70ZM131.62 27.35L131.62 27.35Q127.03 27.35 124.56 24.95Q122.10 22.55 122.10 17.90L122.10 17.90Q122.10 13.28 124.30 10.86Q126.51 8.45 130.67 8.45L130.67 8.45Q138.44 8.45 138.65 17.27L138.65 17.27Q138.69 18.11 138.06 18.67Q137.43 19.23 136.59 19.23L136.59 19.23L127.03 19.23Q126.72 19.23 126.79 19.54L126.79 19.54Q127.03 21.89 128.34 22.96Q129.66 24.02 132.18 24.02L132.18 24.02Q133.75 24.02 135.68 23.50L135.68 23.50Q136.31 23.32 136.85 23.71Q137.39 24.09 137.39 24.76L137.39 24.76Q137.39 25.57 136.92 26.18Q136.45 26.79 135.68 26.93L135.68 26.93Q133.72 27.35 131.62 27.35ZM147.47 19.65L147.47 19.65Q143.80 18.84 142.24 17.45Q140.68 16.04 140.68 13.80L140.68 13.80Q140.68 11.28 142.55 9.87Q144.43 8.45 148.10 8.45L148.10 8.45Q150.41 8.45 152.69 8.87L152.69 8.87Q153.46 9.01 153.93 9.62Q154.40 10.23 154.40 11.04L154.40 11.04Q154.40 11.70 153.88 12.11Q153.35 12.51 152.69 12.33L152.69 12.33Q150.73 11.84 148.56 11.84L148.56 11.84Q145.41 11.84 145.41 13.59L145.41 13.59Q145.41 14.43 146.00 14.99Q146.60 15.55 148.03 15.87L148.03 15.87Q152.06 16.67 153.54 18.04Q155.03 19.41 155.03 22.03L155.03 22.03Q155.03 24.55 153.14 25.95Q151.25 27.35 147.65 27.35L147.65 27.35Q145.30 27.35 142.85 26.79L142.85 26.79Q142.08 26.61 141.59 25.97Q141.10 25.32 141.10 24.48L141.10 24.48Q141.10 23.81 141.64 23.46Q142.19 23.11 142.82 23.29L142.82 23.29Q145.09 23.92 147.12 23.92L147.12 23.92Q150.31 23.92 150.31 22.03L150.31 22.03Q150.31 21.12 149.69 20.59Q149.08 20.07 147.47 19.65ZM159.90 12.89L158.22 12.89Q157.52 12.89 157.03 12.39Q156.54 11.88 156.54 11.18Q156.54 10.48 157.03 9.99Q157.52 9.50 158.22 9.50L158.22 9.50L159.90 9.50Q160.21 9.50 160.21 9.18L160.21 9.18L160.21 4.84Q160.21 4.04 160.79 3.44Q161.37 2.85 162.17 2.85L162.17 2.85L162.87 2.85Q163.68 2.85 164.27 3.44Q164.87 4.04 164.87 4.84L164.87 4.84L164.87 9.18Q164.87 9.50 165.18 9.50L165.18 9.50L169.17 9.50Q169.87 9.50 170.38 9.99Q170.89 10.48 170.89 11.18Q170.89 11.88 170.38 12.39Q169.87 12.89 169.17 12.89L169.17 12.89L165.18 12.89Q164.87 12.89 164.87 13.17L164.87 13.17L164.87 20.24Q164.87 22.52 165.36 23.18Q165.85 23.85 167.39 23.85L167.39 23.85Q168.23 23.85 168.65 23.78L168.65 23.78Q169.35 23.71 169.87 24.09Q170.40 24.48 170.40 25.14L170.40 25.14Q170.40 25.91 169.89 26.53Q169.38 27.14 168.65 27.21L168.65 27.21Q167.11 27.35 166.34 27.35L166.34 27.35Q162.94 27.35 161.58 25.90Q160.21 24.45 160.21 20.70L160.21 20.70L160.21 13.17Q160.21 12.89 159.90 12.89L159.90 12.89ZM181.56 11.70L181.56 11.70Q179.78 11.70 178.81 12.70Q177.85 13.70 177.61 15.90L177.61 15.90Q177.61 16.18 177.89 16.18L177.89 16.18L184.75 16.18Q185.03 16.18 185.03 15.90L185.03 15.90Q184.89 11.70 181.56 11.70ZM182.44 27.35L182.44 27.35Q177.85 27.35 175.38 24.95Q172.92 22.55 172.92 17.90L172.92 17.90Q172.92 13.28 175.12 10.86Q177.33 8.45 181.49 8.45L181.49 8.45Q189.26 8.45 189.47 17.27L189.47 17.27Q189.51 18.11 188.88 18.67Q188.25 19.23 187.41 19.23L187.41 19.23L177.85 19.23Q177.54 19.23 177.61 19.54L177.61 19.54Q177.85 21.89 179.16 22.96Q180.48 24.02 183.00 24.02L183.00 24.02Q184.57 24.02 186.50 23.50L186.50 23.50Q187.13 23.32 187.67 23.71Q188.21 24.09 188.21 24.76L188.21 24.76Q188.21 25.57 187.74 26.18Q187.27 26.79 186.50 26.93L186.50 26.93Q184.54 27.35 182.44 27.35Z" fill="#dbdae2"></path></g>
        
      </svg>