
      <svg data-logo="logo" xmlns="http://www.w3.org/2000/svg" viewBox="0 0 231 43">
        <g id="logogram" transform="translate(0, 1) rotate(0) "><path d="M12.2501 38.5041L8.20328 31.4947L14.1422 21.2365L17.9161 27.7736L40.1946 27.7616L33.8729 38.6009L12.2501 38.5041Z" fill="#FFAD64"/><path d="M44.1727 20.8016L40.1259 27.8108L28.2725 27.7968L32.0468 21.2598L20.8972 1.97211L33.4451 2.02716L44.1727 20.8016Z" fill="#ADD4D3"/><path d="M12.8737 1.93472H20.9674L26.8819 12.2073L19.3334 12.2069L8.2047 31.5066L1.97841 20.6124L12.8737 1.93472Z" fill="#FB8351"/><path fill-rule="evenodd" clip-rule="evenodd" d="M21.9542 0.311858L21.93 0.269989H11.9176L0.0561523 20.604L8.19841 34.8506L8.2084 34.8333L11.2865 40.1647L34.8269 40.27L43.0937 26.0952H43.0387L46.0926 20.8058L34.4136 0.366518L21.9542 0.311858ZM29.6993 13.8721H29.7618L23.8761 3.65005L32.4765 3.68776L42.2528 20.7972L39.1928 26.0974L31.1736 26.1017L33.9696 21.2592L29.6993 13.8721ZM19.9152 3.59966L23.9284 10.5423L18.3719 10.5421L8.85894 27.0394L8.21004 28.1604L3.90107 20.6209L13.8301 3.59966H19.9152ZM16.0567 21.2226L20.2953 13.8719L25.8534 13.8721L30.1241 21.2602L27.3276 26.1038L18.8773 26.1084L16.0567 21.2226ZM10.1296 31.5014L11.7422 28.705L14.1402 24.5628L16.9553 29.4391L25.4043 29.4345L25.3906 29.4581L37.2697 29.4722L32.9192 36.9318L13.2138 36.8436L10.1296 31.5014Z" fill="#333237"/></g>
        <g id="logotype" transform="translate(47, 8)"><path fill="#333237" d="M5.74 25.11L5.74 25.11L1.09 10.69Q0.84 9.99 1.28 9.39Q1.72 8.80 2.45 8.80L2.45 8.80L3.50 8.80Q4.38 8.80 5.08 9.34Q5.78 9.88 5.99 10.72L5.99 10.72L9.49 24.27Q9.49 24.30 9.52 24.30Q9.56 24.30 9.56 24.27L9.56 24.27L13.06 10.72Q13.27 9.88 13.97 9.34Q14.67 8.80 15.54 8.80L15.54 8.80L16.45 8.80Q17.19 8.80 17.62 9.39Q18.06 9.99 17.82 10.69L17.82 10.69L13.16 25.11Q12.92 25.95 12.20 26.48Q11.48 27 10.57 27L10.57 27L8.33 27Q7.46 27 6.74 26.48Q6.02 25.95 5.74 25.11ZM24.05 27L23.14 27Q22.33 27 21.73 26.41Q21.14 25.81 21.14 25.00L21.14 25.00L21.14 10.79Q21.14 9.99 21.73 9.39Q22.33 8.80 23.14 8.80L23.14 8.80L24.05 8.80Q24.85 8.80 25.45 9.39Q26.04 9.99 26.04 10.79L26.04 10.79L26.04 25.00Q26.04 25.81 25.45 26.41Q24.85 27 24.05 27L24.05 27ZM24.05 4.95L23.14 4.95Q22.33 4.95 21.73 4.35Q21.14 3.76 21.14 2.95L21.14 2.95L21.14 2.74Q21.14 1.94 21.73 1.34Q22.33 0.75 23.14 0.75L23.14 0.75L24.05 0.75Q24.85 0.75 25.45 1.34Q26.04 1.94 26.04 2.74L26.04 2.74L26.04 2.95Q26.04 3.76 25.45 4.35Q24.85 4.95 24.05 4.95L24.05 4.95ZM34.02 25.11L34.02 25.11L29.37 10.69Q29.12 9.99 29.56 9.39Q30.00 8.80 30.73 8.80L30.73 8.80L31.78 8.80Q32.66 8.80 33.36 9.34Q34.05 9.88 34.27 10.72L34.27 10.72L37.77 24.27Q37.77 24.30 37.80 24.30Q37.84 24.30 37.84 24.27L37.84 24.27L41.34 10.72Q41.55 9.88 42.25 9.34Q42.95 8.80 43.82 8.80L43.82 8.80L44.73 8.80Q45.47 8.80 45.90 9.39Q46.34 9.99 46.09 10.69L46.09 10.69L41.44 25.11Q41.20 25.95 40.48 26.48Q39.76 27 38.85 27L38.85 27L36.61 27Q35.73 27 35.02 26.48Q34.30 25.95 34.02 25.11ZM55.27 11.70L55.27 11.70Q53.48 11.70 52.52 12.70Q51.56 13.70 51.31 15.90L51.31 15.90Q51.31 16.18 51.59 16.18L51.59 16.18L58.45 16.18Q58.73 16.18 58.73 15.90L58.73 15.90Q58.59 11.70 55.27 11.70ZM56.14 27.35L56.14 27.35Q51.56 27.35 49.09 24.95Q46.62 22.55 46.62 17.90L46.62 17.90Q46.62 13.28 48.83 10.86Q51.03 8.45 55.20 8.45L55.20 8.45Q62.97 8.45 63.18 17.27L63.18 17.27Q63.21 18.11 62.58 18.67Q61.95 19.23 61.11 19.23L61.11 19.23L51.56 19.23Q51.24 19.23 51.31 19.54L51.31 19.54Q51.56 21.89 52.87 22.96Q54.18 24.02 56.70 24.02L56.70 24.02Q58.28 24.02 60.20 23.50L60.20 23.50Q60.83 23.32 61.37 23.71Q61.92 24.09 61.92 24.76L61.92 24.76Q61.92 25.57 61.44 26.18Q60.97 26.79 60.20 26.93L60.20 26.93Q58.24 27.35 56.14 27.35ZM76.81 13.30Q75.78 11.84 73.71 11.84Q71.64 11.84 70.61 13.30Q69.58 14.75 69.58 17.90Q69.58 21.05 70.61 22.50Q71.64 23.95 73.71 23.95Q75.78 23.95 76.81 22.50Q77.84 21.05 77.84 17.90Q77.84 14.75 76.81 13.30ZM80.24 24.88Q77.91 27.35 73.71 27.35Q69.51 27.35 67.18 24.88Q64.86 22.41 64.86 17.90Q64.86 13.38 67.18 10.92Q69.51 8.45 73.71 8.45Q77.91 8.45 80.24 10.92Q82.56 13.38 82.56 17.90Q82.56 22.41 80.24 24.88ZM95.27 18.70L87.36 18.70Q86.59 18.70 86.03 18.16Q85.47 17.62 85.47 16.85Q85.47 16.08 86.03 15.54Q86.59 14.99 87.36 14.99L87.36 14.99L95.27 14.99Q96.04 14.99 96.60 15.54Q97.16 16.08 97.16 16.85Q97.16 17.62 96.60 18.16Q96.04 18.70 95.27 18.70L95.27 18.70ZM103.08 12.89L101.40 12.89Q100.70 12.89 100.21 12.39Q99.72 11.88 99.72 11.18Q99.72 10.48 100.21 9.99Q100.70 9.50 101.40 9.50L101.40 9.50L103.08 9.50Q103.39 9.50 103.39 9.18L103.39 9.18L103.39 4.84Q103.39 4.04 103.97 3.44Q104.55 2.85 105.35 2.85L105.35 2.85L106.05 2.85Q106.86 2.85 107.45 3.44Q108.05 4.04 108.05 4.84L108.05 4.84L108.05 9.18Q108.05 9.50 108.36 9.50L108.36 9.50L112.35 9.50Q113.05 9.50 113.56 9.99Q114.07 10.48 114.07 11.18Q114.07 11.88 113.56 12.39Q113.05 12.89 112.35 12.89L112.35 12.89L108.36 12.89Q108.05 12.89 108.05 13.17L108.05 13.17L108.05 20.24Q108.05 22.52 108.54 23.18Q109.03 23.85 110.57 23.85L110.57 23.85Q111.41 23.85 111.83 23.78L111.83 23.78Q112.53 23.71 113.05 24.09Q113.58 24.48 113.58 25.14L113.58 25.14Q113.58 25.91 113.07 26.53Q112.56 27.14 111.83 27.21L111.83 27.21Q110.29 27.35 109.52 27.35L109.52 27.35Q106.12 27.35 104.76 25.90Q103.39 24.45 103.39 20.70L103.39 20.70L103.39 13.17Q103.39 12.89 103.08 12.89L103.08 12.89ZM124.74 11.70L124.74 11.70Q122.96 11.70 121.99 12.70Q121.03 13.70 120.79 15.90L120.79 15.90Q120.79 16.18 121.07 16.18L121.07 16.18L127.93 16.18Q128.21 16.18 128.21 15.90L128.21 15.90Q128.07 11.70 124.74 11.70ZM125.62 27.35L125.62 27.35Q121.03 27.35 118.56 24.95Q116.10 22.55 116.10 17.90L116.10 17.90Q116.10 13.28 118.30 10.86Q120.51 8.45 124.67 8.45L124.67 8.45Q132.44 8.45 132.65 17.27L132.65 17.27Q132.69 18.11 132.06 18.67Q131.43 19.23 130.59 19.23L130.59 19.23L121.03 19.23Q120.72 19.23 120.79 19.54L120.79 19.54Q121.03 21.89 122.34 22.96Q123.66 24.02 126.18 24.02L126.18 24.02Q127.75 24.02 129.68 23.50L129.68 23.50Q130.31 23.32 130.85 23.71Q131.39 24.09 131.39 24.76L131.39 24.76Q131.39 25.57 130.92 26.18Q130.45 26.79 129.68 26.93L129.68 26.93Q127.72 27.35 125.62 27.35ZM141.47 19.65L141.47 19.65Q137.80 18.84 136.24 17.45Q134.68 16.04 134.68 13.80L134.68 13.80Q134.68 11.28 136.55 9.87Q138.43 8.45 142.10 8.45L142.10 8.45Q144.41 8.45 146.69 8.87L146.69 8.87Q147.46 9.01 147.93 9.62Q148.40 10.23 148.40 11.04L148.40 11.04Q148.40 11.70 147.88 12.11Q147.35 12.51 146.69 12.33L146.69 12.33Q144.73 11.84 142.56 11.84L142.56 11.84Q139.41 11.84 139.41 13.59L139.41 13.59Q139.41 14.43 140.00 14.99Q140.60 15.55 142.03 15.87L142.03 15.87Q146.06 16.67 147.54 18.04Q149.03 19.41 149.03 22.03L149.03 22.03Q149.03 24.55 147.14 25.95Q145.25 27.35 141.65 27.35L141.65 27.35Q139.30 27.35 136.85 26.79L136.85 26.79Q136.08 26.61 135.59 25.97Q135.10 25.32 135.10 24.48L135.10 24.48Q135.10 23.81 135.64 23.46Q136.19 23.11 136.82 23.29L136.82 23.29Q139.09 23.92 141.12 23.92L141.12 23.92Q144.31 23.92 144.31 22.03L144.31 22.03Q144.31 21.12 143.69 20.59Q143.08 20.07 141.47 19.65ZM153.90 12.89L152.22 12.89Q151.52 12.89 151.03 12.39Q150.54 11.88 150.54 11.18Q150.54 10.48 151.03 9.99Q151.52 9.50 152.22 9.50L152.22 9.50L153.90 9.50Q154.21 9.50 154.21 9.18L154.21 9.18L154.21 4.84Q154.21 4.04 154.79 3.44Q155.37 2.85 156.17 2.85L156.17 2.85L156.87 2.85Q157.68 2.85 158.27 3.44Q158.87 4.04 158.87 4.84L158.87 4.84L158.87 9.18Q158.87 9.50 159.18 9.50L159.18 9.50L163.17 9.50Q163.87 9.50 164.38 9.99Q164.89 10.48 164.89 11.18Q164.89 11.88 164.38 12.39Q163.87 12.89 163.17 12.89L163.17 12.89L159.18 12.89Q158.87 12.89 158.87 13.17L158.87 13.17L158.87 20.24Q158.87 22.52 159.36 23.18Q159.85 23.85 161.39 23.85L161.39 23.85Q162.23 23.85 162.65 23.78L162.65 23.78Q163.35 23.71 163.87 24.09Q164.40 24.48 164.40 25.14L164.40 25.14Q164.40 25.91 163.89 26.53Q163.38 27.14 162.65 27.21L162.65 27.21Q161.11 27.35 160.34 27.35L160.34 27.35Q156.94 27.35 155.58 25.90Q154.21 24.45 154.21 20.70L154.21 20.70L154.21 13.17Q154.21 12.89 153.90 12.89L153.90 12.89ZM175.56 11.70L175.56 11.70Q173.78 11.70 172.81 12.70Q171.85 13.70 171.61 15.90L171.61 15.90Q171.61 16.18 171.89 16.18L171.89 16.18L178.75 16.18Q179.03 16.18 179.03 15.90L179.03 15.90Q178.89 11.70 175.56 11.70ZM176.44 27.35L176.44 27.35Q171.85 27.35 169.38 24.95Q166.92 22.55 166.92 17.90L166.92 17.90Q166.92 13.28 169.12 10.86Q171.33 8.45 175.49 8.45L175.49 8.45Q183.26 8.45 183.47 17.27L183.47 17.27Q183.51 18.11 182.88 18.67Q182.25 19.23 181.41 19.23L181.41 19.23L171.85 19.23Q171.54 19.23 171.61 19.54L171.61 19.54Q171.85 21.89 173.16 22.96Q174.48 24.02 177.00 24.02L177.00 24.02Q178.57 24.02 180.50 23.50L180.50 23.50Q181.13 23.32 181.67 23.71Q182.21 24.09 182.21 24.76L182.21 24.76Q182.21 25.57 181.74 26.18Q181.27 26.79 180.50 26.93L180.50 26.93Q178.54 27.35 176.44 27.35Z"/></g>
        
      </svg>
    